<svg width="19" height="19" viewBox="0 0 19 19" fill="none" xmlns="http://www.w3.org/2000/svg">
<path d="M8.499 7.00007L8.5 18.5001H3.25C2.42003 18.5001 1.62147 18.1827 1.0181 17.6128C0.41472 17.0429 0.0522448 16.2637 0.00500011 15.4351L0 15.2521V6.99907H8.499V7.00007ZM9.999 12.9991H18.5V15.2521C18.5 16.114 18.1576 16.9407 17.5481 17.5502C16.9386 18.1597 16.112 18.5021 15.25 18.5021L10 18.5001L9.999 12.9991ZM15.251 -0.000929594C16.081 -0.000998458 16.8795 0.316471 17.4829 0.886379C18.0863 1.45629 18.4488 2.23544 18.496 3.06407L18.501 3.24807L18.5 11.4991H9.999L10 -0.00192976H15.251V-0.000929594ZM8.5 -0.00292969L8.499 5.50007H0V3.24807C0 2.38612 0.34241 1.55947 0.951903 0.949973C1.5614 0.34048 2.38805 -0.00192976 3.25 -0.00192976L8.5 -0.00292969Z" fill="#00B894"/>
</svg>
